Coordinates
version=1
nRows=22
nColumns=33
inDegrees=yes

Units are S.I. units (second, meters, Newtons, ...)
Angles are in degrees.

endheader
time	ground_thorax_rot_x	ground_thorax_rot_y	ground_thorax_rot_z	ground_thorax_tx	ground_thorax_ty	ground_thorax_tz	clav_prot_r	clav_elev_r	scapula_abduction_r	scapula_elevation_r	scapula_upward_rot_r	scapula_winging_r	shoulder_elv_r	plane_of_elev_r	axial_rot_r	elbow_flexion_r	pro_sup_r	wrist_flex_r	wrist_dev_r	clav_prot_l	clav_elev_l	scapula_abduction_l	scapula_elevation_l	scapula_upward_rot_l	scapula_winging_l	shoulder_elv_l	plane_of_elev_l	axial_rot_l	elbow_flexion_l	pro_sup_l	wrist_flex_l	wrist_dev_l	
9.6500	24.921439	30.642444	47.154755	-67.383878	842.355660	-44.867765	13.303780	34.396074	28.767020	45.000000	-45.000000	2431.768888	-646.787106	22.194563	-165.575759	1437.984072	-196.736827	15.338907	15.066260	-7.308465	-45.000000	-40.253427	45.000000	-45.000000	4784.620149	-5320.553508	26.707615	33.167763	-11.111606	398.990028	14.888003	-19.820246	
9.6600	24.831816	30.768580	47.390961	-65.563296	841.755744	-44.912551	13.332784	34.421553	28.790387	45.000000	-45.000000	2431.869537	-646.845965	22.235388	-165.851822	1437.969959	-196.333971	15.252557	15.062870	-7.393615	-45.000000	-40.207318	45.000000	-45.000000	4784.532101	-5320.602779	26.728274	33.350204	-11.103500	399.284531	14.878767	-19.747083	
9.6700	24.742209	30.897927	47.633345	-63.720563	841.111085	-44.958652	13.361056	34.449430	28.812767	45.000000	-45.000000	2431.971444	-646.908799	22.274067	-166.126708	1437.959407	-195.926634	15.167554	15.053829	-7.486429	-45.000000	-40.156520	45.000000	-45.000000	4784.443719	-5320.656011	26.747458	33.528481	-11.096596	399.592899	14.866468	-19.674359	
9.6800	24.653657	31.028769	47.880726	-61.858579	840.417994	-45.002980	13.391664	34.479889	28.836406	45.000000	-45.000000	2432.073646	-646.976814	22.309419	-166.397344	1437.951972	-195.518087	15.083777	15.039921	-7.589213	-45.000000	-40.098065	45.000000	-45.000000	4784.354919	-5320.712526	26.763930	33.703621	-11.090919	399.910241	14.851404	-19.600162	
9.6900	24.572191	31.155514	48.124464	-59.981188	839.673481	-45.042672	13.419309	34.513693	28.869429	45.000000	-45.000000	2432.176493	-647.051614	22.341554	-166.658823	1437.953121	-195.110125	15.001113	15.024115	-7.699712	-45.000000	-40.031327	45.000000	-45.000000	4784.268536	-5320.774753	26.780943	33.876128	-11.087819	400.231754	14.835665	-19.526206	
9.7000	24.488252	31.284500	48.374600	-58.092460	838.875453	-45.075335	13.453491	34.548164	28.900754	45.000000	-45.000000	2432.280493	-647.128628	22.368790	-166.910566	1437.956941	-194.706929	14.917562	15.003620	-7.820770	-45.000000	-39.955010	45.000000	-45.000000	4784.179516	-5320.836826	26.792719	34.041279	-11.084860	400.551991	14.815664	-19.444650	
9.7100	24.406382	31.411365	48.624140	-56.196562	838.023172	-45.099159	13.482225	34.585521	28.938561	45.000000	-45.000000	2432.385523	-647.210854	22.389547	-167.150290	1437.969446	-194.311487	14.834518	14.980849	-7.947473	-45.000000	-39.871521	45.000000	-45.000000	4784.093313	-5320.903902	26.804820	34.198726	-11.084575	400.865965	14.795084	-19.360534	
9.7200	24.321335	31.540107	48.875677	-54.297184	837.117365	-45.112936	13.509794	34.623459	28.971000	45.000000	-45.000000	2432.491392	-647.293473	22.405974	-167.379428	1437.983315	-193.925421	14.751096	14.957259	-8.079592	-45.000000	-39.782301	45.000000	-45.000000	4784.006463	-5320.973568	26.814931	34.347230	-11.085317	401.170082	14.772428	-19.270769	
9.7300	24.234533	31.666580	49.126475	-52.397340	836.160393	-45.116015	13.526449	34.662330	28.998341	45.000000	-45.000000	2432.601671	-647.376048	22.419905	-167.596222	1438.003280	-193.548747	14.666807	14.934894	-8.211523	-45.000000	-39.692191	45.000000	-45.000000	4783.922787	-5321.049520	26.824948	34.485207	-11.088345	401.461895	14.749274	-19.178546	
9.7400	24.134602	31.799823	49.388605	-50.499016	835.156172	-45.108249	13.541150	34.698545	29.003090	45.000000	-45.000000	2432.716384	-647.451922	22.431529	-167.802629	1438.019668	-193.182737	14.579629	14.910552	-8.344232	-45.000000	-39.602044	45.000000	-45.000000	4783.835436	-5321.126318	26.827970	34.605628	-11.090939	401.739811	14.720670	-19.075753	
9.7500	24.024474	31.933543	49.661638	-48.603408	834.110094	-45.089922	13.541761	34.734662	29.001607	45.000000	-45.000000	2432.839642	-647.528917	22.434747	-167.996795	1438.044799	-192.827561	14.489457	14.882569	-8.472778	-45.000000	-39.514049	45.000000	-45.000000	4783.751917	-5321.206435	26.824439	34.706226	-11.095954	402.003227	14.688655	-18.966460	
9.7600	23.912845	32.067055	49.929965	-46.710885	833.028595	-45.061671	13.536299	34.771464	28.988208	45.000000	-45.000000	2432.964943	-647.603466	22.438633	-168.172059	1438.067613	-192.479520	14.398554	14.858094	-8.599451	-45.000000	-39.426269	45.000000	-45.000000	4783.669777	-5321.293469	26.820592	34.790253	-11.100129	402.252749	14.655492	-18.855123	
9.7700	23.801640	32.197225	50.193942	-44.821512	831.918737	-45.024386	13.525845	34.808597	28.971867	45.000000	-45.000000	2433.093808	-647.679347	22.442726	-168.330920	1438.095975	-192.135458	14.307179	14.835227	-8.724012	-45.000000	-39.338516	45.000000	-45.000000	4783.591953	-5321.386613	26.815357	34.861923	-11.104657	402.491170	14.621858	-18.744456	
9.7800	23.691078	32.329860	50.451750	-42.935052	830.787384	-44.979076	13.518947	34.845429	28.943638	45.000000	-45.000000	2433.219031	-647.751225	22.449794	-168.471289	1438.116627	-191.792207	14.218728	14.813900	-8.849796	-45.000000	-39.248082	45.000000	-45.000000	4783.513462	-5321.484632	26.810738	34.921423	-11.106459	402.721150	14.586878	-18.633788	
9.7900	23.569078	32.465838	50.726387	-41.051850	829.640826	-44.926753	13.513342	34.879848	28.913464	45.000000	-45.000000	2433.349209	-647.824452	22.448110	-168.602468	1438.142576	-191.451119	14.130918	14.781147	-8.975088	-45.000000	-39.155509	45.000000	-45.000000	4783.437225	-5321.576480	26.793572	34.962922	-11.110071	402.946545	14.544496	-18.513917	
9.8000	23.456470	32.599156	50.982853	-39.172713	828.483957	-44.868312	13.503121	34.919838	28.879986	45.000000	-45.000000	2433.473752	-647.896179	22.449314	-168.708597	1438.159755	-191.106819	14.050826	14.752847	-9.100177	-45.000000	-39.062997	45.000000	-45.000000	4783.365377	-5321.676987	26.783952	34.997682	-11.112034	403.167955	14.505744	-18.402530	
9.8100	23.328295	32.738333	51.258968	-37.299634	827.320189	-44.804468	13.500507	34.951577	28.840391	45.000000	-45.000000	2433.602238	-647.967454	22.445122	-168.812579	1438.184638	-190.761815	13.970015	14.713333	-9.225340	-45.000000	-38.968137	45.000000	-45.000000	4783.292327	-5321.768670	26.761056	35.020346	-11.115744	403.389653	14.457832	-18.280624	
9.8200	23.208129	32.874037	51.517986	-35.435187	826.150978	-44.735706	13.489838	34.991275	28.805350	45.000000	-45.000000	2433.725250	-648.040561	22.439597	-168.894602	1438.207071	-190.410318	13.896752	14.677493	-9.350362	-45.000000	-38.871224	45.000000	-45.000000	4783.225423	-5321.869578	26.748753	35.043218	-11.114245	403.609265	14.414617	-18.171043	
9.8300	23.076471	33.012406	51.789368	-33.583051	824.976374	-44.662282	13.483317	35.026583	28.773167	45.000000	-45.000000	2433.852861	-648.118145	22.425904	-168.976950	1438.242913	-190.054624	13.823159	14.634216	-9.474230	-45.000000	-38.772829	45.000000	-45.000000	4783.161975	-5321.964401	26.729220	35.055034	-11.112832	403.828982	14.366316	-18.057626	
9.8400	22.959805	33.145330	52.027481	-31.746995	823.795026	-44.584182	13.466984	35.069730	28.737114	45.000000	-45.000000	2433.978360	-648.191851	22.414384	-169.032913	1438.272359	-189.689658	13.756780	14.604504	-9.596760	-45.000000	-38.676200	45.000000	-45.000000	4783.100776	-5322.073611	26.724869	35.060269	-11.104538	404.043728	14.325124	-17.960245	
9.8500	22.829257	33.285377	52.276900	-29.931352	822.605210	-44.501095	13.461449	35.098215	28.686230	45.000000	-45.000000	2434.106298	-648.262954	22.403756	-169.092584	1438.309708	-189.324626	13.688961	14.570457	-9.716010	-45.000000	-38.580603	45.000000	-45.000000	4783.037666	-5322.178516	26.712623	35.040285	-11.099590	404.253696	14.278243	-17.854968	
9.8600	22.700962	33.424695	52.514520	-28.139714	821.404841	-44.412306	13.449317	35.130534	28.623189	45.000000	-45.000000	2434.239049	-648.325019	22.389135	-169.128537	1438.340201	-188.960333	13.623402	14.540705	-9.834987	-45.000000	-38.485437	45.000000	-45.000000	4782.970899	-5322.286984	26.697794	34.995463	-11.092294	404.452295	14.230294	-17.748383	
